<svg width="250" height="250" viewBox="0 0 250 250" fill="none" xmlns="http://www.w3.org/2000/svg">
<rect width="250" height="250" rx="25" fill="black"/>
<circle cx="150" cy="62" r="25" fill="white"/>
<circle cx="149.5" cy="61.5" r="12.5" fill="black"/>
<rect y="87" width="125" height="125" rx="25" fill="white"/>
<rect y="87" width="50" height="125" fill="white"/>
<path d="M20.6699 104.5C22.5944 107.833 27.4056 107.833 29.3301 104.5L42.3205 82C44.245 78.6667 41.8394 74.5 37.9904 74.5H12.0096C8.16062 74.5 5.75499 78.6667 7.67949 82L20.6699 104.5Z" fill="black"/>
<path d="M70.6699 104.5C72.5944 107.833 77.4056 107.833 79.3301 104.5L92.3205 82C94.245 78.6667 91.8394 74.5 87.9904 74.5H62.0096C58.1606 74.5 55.755 78.6667 57.6795 82L70.6699 104.5Z" fill="black"/>
<path d="M20.6699 194.5C22.5944 191.167 27.4056 191.167 29.3301 194.5L42.3205 217C44.245 220.333 41.8394 224.5 37.9904 224.5H12.0096C8.16062 224.5 5.75499 220.333 7.67949 217L20.6699 194.5Z" fill="black"/>
<path d="M70.6699 194.5C72.5944 191.167 77.4056 191.167 79.3301 194.5L92.3205 217C94.245 220.333 91.8394 224.5 87.9904 224.5H62.0096C58.1606 224.5 55.755 220.333 57.6795 217L70.6699 194.5Z" fill="black"/>
</svg>
